<mxfile host="app.diagrams.net" agent="Mozilla/5.0 (Windows NT 10.0; Win64; x64; rv:130.0) Gecko/20100101 Firefox/130.0" version="24.7.17">
  <diagram name="Page-1" id="ai1lAI1cXWnI07Mm7c0X">
    <mxGraphModel dx="1118" dy="1214" grid="0" gridSize="10" guides="1" tooltips="1" connect="1" arrows="1" fold="1" page="0" pageScale="1" pageWidth="850" pageHeight="1100" math="0" shadow="0">
      <root>
        <mxCell id="0" />
        <mxCell id="1" parent="0" />
        <mxCell id="tsdURmEtjTxGYdrAqslD-4" value="" style="rounded=1;whiteSpace=wrap;html=1;" vertex="1" parent="1">
          <mxGeometry x="-103" y="203" width="120" height="60" as="geometry" />
        </mxCell>
        <mxCell id="tsdURmEtjTxGYdrAqslD-6" value="" style="rounded=1;whiteSpace=wrap;html=1;" vertex="1" parent="1">
          <mxGeometry x="-103" y="-5" width="120" height="60" as="geometry" />
        </mxCell>
        <mxCell id="tsdURmEtjTxGYdrAqslD-7" value="" style="rounded=1;whiteSpace=wrap;html=1;" vertex="1" parent="1">
          <mxGeometry x="83" y="143" width="120" height="60" as="geometry" />
        </mxCell>
        <mxCell id="tsdURmEtjTxGYdrAqslD-8" value="" style="rounded=1;whiteSpace=wrap;html=1;" vertex="1" parent="1">
          <mxGeometry x="83" y="55" width="120" height="60" as="geometry" />
        </mxCell>
        <mxCell id="tsdURmEtjTxGYdrAqslD-9" value="" style="rounded=1;whiteSpace=wrap;html=1;" vertex="1" parent="1">
          <mxGeometry x="281" y="203" width="120" height="60" as="geometry" />
        </mxCell>
        <mxCell id="tsdURmEtjTxGYdrAqslD-10" value="" style="rounded=1;whiteSpace=wrap;html=1;" vertex="1" parent="1">
          <mxGeometry x="281" y="-5" width="120" height="60" as="geometry" />
        </mxCell>
      </root>
    </mxGraphModel>
  </diagram>
</mxfile>
